<?xml version="1.0" encoding="UTF-8" standalone="no"?>
<!-- Created with Inkscape (http://www.inkscape.org/) -->

<svg
   xmlns:dc="http://purl.org/dc/elements/1.1/"
   xmlns:cc="http://creativecommons.org/ns#"
   xmlns:rdf="http://www.w3.org/1999/02/22-rdf-syntax-ns#"
   xmlns:svg="http://www.w3.org/2000/svg"
   xmlns="http://www.w3.org/2000/svg"
   xmlns:sodipodi="http://sodipodi.sourceforge.net/DTD/sodipodi-0.dtd"
   xmlns:inkscape="http://www.inkscape.org/namespaces/inkscape"
   width="55.787556mm"
   height="26.428209mm"
   viewBox="0 0 55.787556 26.428209"
   version="1.1"
   id="svg1405"
   inkscape:version="0.92.3 (2405546, 2018-03-11)"
   sodipodi:docname="payware-certified-icon-curves.svg">
  <defs
     id="defs1399" />
  <sodipodi:namedview
     id="base"
     pagecolor="#ffffff"
     bordercolor="#666666"
     borderopacity="1.0"
     inkscape:pageopacity="0.0"
     inkscape:pageshadow="2"
     inkscape:zoom="2.8"
     inkscape:cx="131.24628"
     inkscape:cy="67.308579"
     inkscape:document-units="mm"
     inkscape:current-layer="layer1"
     showgrid="false"
     inkscape:window-width="1920"
     inkscape:window-height="1027"
     inkscape:window-x="-8"
     inkscape:window-y="-8"
     inkscape:window-maximized="1"
     fit-margin-top="0"
     fit-margin-left="0"
     fit-margin-right="0"
     fit-margin-bottom="0" />
  <metadata
     id="metadata1402">
    <rdf:RDF>
      <cc:Work
         rdf:about="">
        <dc:format>image/svg+xml</dc:format>
        <dc:type
           rdf:resource="http://purl.org/dc/dcmitype/StillImage" />
        <dc:title></dc:title>
      </cc:Work>
    </rdf:RDF>
  </metadata>
  <g
     inkscape:label="Layer 1"
     inkscape:groupmode="layer"
     id="layer1"
     transform="translate(-12.364551,-24.476422)">
    <g
       id="g1437">
      <path
         inkscape:connector-curvature="0"
         id="rect2154-9"
         d="M 14.119653,26.231524 H 66.397004 V 49.149529 H 14.119653 Z"
         style="opacity:1;fill:#464646;fill-opacity:1;fill-rule:nonzero;stroke:#464646;stroke-width:3.51020384;stroke-linecap:butt;stroke-linejoin:round;stroke-miterlimit:4;stroke-dasharray:none;stroke-dashoffset:0;stroke-opacity:1;paint-order:normal" />
      <g
         inkscape:export-ydpi="299.25684"
         inkscape:export-xdpi="299.25684"
         id="text1392-9"
         style="font-style:normal;font-variant:normal;font-weight:300;font-stretch:normal;font-size:2.70489573px;line-height:0.95842767px;font-family:Calibri;-inkscape-font-specification:'Calibri, Light';font-variant-ligatures:normal;font-variant-caps:normal;font-variant-numeric:normal;font-feature-settings:normal;text-align:start;letter-spacing:0px;word-spacing:0px;writing-mode:lr-tb;text-anchor:start;fill:#d6d6d6;fill-opacity:1;stroke:none;stroke-width:0.06709409"
         aria-label="℠"
         transform="matrix(1.0433756,0,0,1.0433756,-112.50749,-57.196558)">
        <path
           inkscape:connector-curvature="0"
           id="path1396-7"
           style="font-style:normal;font-variant:normal;font-weight:300;font-stretch:normal;font-size:2.70489573px;font-family:Calibri;-inkscape-font-specification:'Calibri, Light';font-variant-ligatures:normal;font-variant-caps:normal;font-variant-numeric:normal;font-feature-settings:normal;text-align:start;writing-mode:lr-tb;text-anchor:start;fill:#d6d6d6;fill-opacity:1;stroke-width:0.06709409"
           d="m 137.1849,89.705493 q 0,0.05547 -0.0224,0.09774 -0.0225,0.04226 -0.0634,0.07264 -0.0396,0.02906 -0.0951,0.0449 -0.0555,0.01453 -0.12283,0.01453 -0.0713,0 -0.12019,-0.01453 -0.0489,-0.01585 -0.0766,-0.03038 -0.0277,-0.01585 -0.0343,-0.02642 -0.007,-0.01189 -0.007,-0.04359 0,-0.02906 0.005,-0.04358 0.007,-0.01453 0.0172,-0.01453 0.0119,0 0.0291,0.01057 0.0185,0.01057 0.0449,0.02377 0.0264,0.01189 0.0621,0.02245 0.0357,0.01057 0.0858,0.01057 0.0687,0 0.11491,-0.02642 0.0475,-0.02642 0.0475,-0.08585 0,-0.02377 -0.0106,-0.04226 -0.009,-0.01849 -0.0304,-0.03302 -0.0198,-0.01585 -0.0502,-0.02774 -0.0304,-0.01321 -0.0713,-0.02377 -0.0515,-0.01321 -0.0925,-0.0317 -0.0409,-0.01981 -0.07,-0.04623 -0.0277,-0.02642 -0.0423,-0.06208 -0.0145,-0.03698 -0.0145,-0.08585 0,-0.04887 0.0198,-0.08717 0.0198,-0.03962 0.0555,-0.06604 0.0357,-0.02774 0.0858,-0.04226 0.0502,-0.01453 0.11226,-0.01453 0.0476,0 0.0898,0.0092 0.0436,0.0092 0.0713,0.02377 0.0277,0.01321 0.033,0.02509 0.007,0.01057 0.007,0.04226 0,0.01321 -0.003,0.02377 -0.001,0.0092 -0.004,0.01717 -0.003,0.0066 -0.008,0.01057 -0.004,0.004 -0.009,0.004 -0.008,0 -0.0211,-0.0079 -0.0119,-0.0079 -0.033,-0.01717 -0.0211,-0.01057 -0.0528,-0.01849 -0.0304,-0.0092 -0.0726,-0.0092 -0.074,0 -0.10566,0.0317 -0.0304,0.03038 -0.0304,0.06868 0,0.02773 0.009,0.04755 0.009,0.01981 0.029,0.03566 0.0198,0.01585 0.0489,0.02774 0.0304,0.01189 0.0713,0.02377 0.0528,0.01321 0.0938,0.0317 0.0423,0.01849 0.0713,0.04491 0.0291,0.02509 0.0436,0.05943 0.0145,0.03302 0.0145,0.0766 z m 1.02094,0.200754 q 0,0.0053 -0.003,0.0092 -0.003,0.004 -0.009,0.0079 -0.007,0.0026 -0.0185,0.004 -0.0119,0.0013 -0.0304,0.0013 -0.0185,0 -0.0304,-0.0013 -0.0106,-0.0013 -0.0172,-0.004 -0.007,-0.004 -0.009,-0.0079 -0.003,-0.004 -0.003,-0.0092 V 89.29606 h -0.003 l -0.24038,0.61547 q -0.003,0.0092 -0.0211,0.01321 -0.0172,0.004 -0.0449,0.004 -0.0224,0 -0.0383,-0.004 -0.0159,-0.004 -0.0198,-0.01321 l -0.23509,-0.61547 h -0.003 v 0.610187 q 0,0.0053 -0.003,0.0092 -0.003,0.004 -0.009,0.0079 -0.007,0.0026 -0.0185,0.004 -0.0106,0.0013 -0.0277,0.0013 -0.0185,0 -0.0304,-0.0013 -0.0119,-0.0013 -0.0198,-0.004 -0.007,-0.004 -0.009,-0.0079 -0.003,-0.004 -0.003,-0.0092 v -0.680186 q 0,-0.02642 0.0159,-0.04094 0.0159,-0.01585 0.0383,-0.01585 h 0.066 q 0.0251,0 0.0423,0.004 0.0172,0.0026 0.0291,0.01189 0.0132,0.0079 0.0225,0.02377 0.009,0.01453 0.0185,0.0383 l 0.18887,0.501885 0.20075,-0.501885 q 0.0172,-0.04094 0.0396,-0.05943 0.0225,-0.01849 0.0634,-0.01849 h 0.066 q 0.0238,0 0.0383,0.01585 0.0159,0.01453 0.0159,0.04094 z" />
      </g>
      <path
         inkscape:connector-curvature="0"
         id="path1025-9-0"
         style="font-style:normal;font-variant:normal;font-weight:normal;font-stretch:normal;font-size:13.76854324px;line-height:1.25;font-family:'Arial Rounded MT Bold';-inkscape-font-specification:'Arial Rounded MT Bold, Normal';font-variant-ligatures:normal;font-variant-caps:normal;font-variant-numeric:normal;font-feature-settings:normal;text-align:start;letter-spacing:0px;word-spacing:0px;writing-mode:lr-tb;text-anchor:start;fill:#d6d6d6;fill-opacity:1;stroke:none;stroke-width:0.359144"
         d="m 17.068087,29.072137 v 0.23148 q 0.540114,-0.66638 1.122318,-0.97502 0.582214,-0.315654 1.318732,-0.315654 0.883833,0 1.627374,0.455945 0.743541,0.455945 1.171429,1.332761 0.4349,0.876816 0.4349,2.076302 0,0.883831 -0.252528,1.62737 -0.245506,0.736527 -0.680406,1.241572 -0.4349,0.498033 -1.031137,0.7716 -0.589215,0.266552 -1.269632,0.266552 -0.820698,0 -1.381857,-0.329683 -0.554147,-0.329684 -1.059193,-0.968006 v 2.875958 q 0,1.262616 -0.918911,1.262616 -0.540114,0 -0.715485,-0.329682 -0.17536,-0.32267 -0.17536,-0.946963 v -8.263118 q 0,-0.547134 0.238495,-0.813686 0.238495,-0.273567 0.65235,-0.273567 0.406843,0 0.659372,0.280581 0.259539,0.273567 0.259539,0.792642 z m 3.752772,2.78477 q 0,-0.75757 -0.231483,-1.297689 -0.231473,-0.547134 -0.645339,-0.834729 -0.406843,-0.29461 -0.904867,-0.29461 -0.792642,0 -1.339778,0.624293 -0.540124,0.624293 -0.540124,1.837807 0,1.14337 0.540124,1.781691 0.540114,0.631308 1.339778,0.631308 0.476989,0 0.883822,-0.273567 0.406844,-0.28058 0.652361,-0.834728 0.245506,-0.554149 0.245506,-1.339776 z" />
      <path
         inkscape:connector-curvature="0"
         id="path1027-5-5"
         style="font-style:normal;font-variant:normal;font-weight:normal;font-stretch:normal;font-size:13.76854324px;line-height:1.25;font-family:'Arial Rounded MT Bold';-inkscape-font-specification:'Arial Rounded MT Bold, Normal';font-variant-ligatures:normal;font-variant-caps:normal;font-variant-numeric:normal;font-feature-settings:normal;text-align:start;letter-spacing:0px;word-spacing:0px;writing-mode:lr-tb;text-anchor:start;fill:#d6d6d6;fill-opacity:1;stroke:none;stroke-width:0.359144"
         d="m 28.07474,34.718836 q -0.69444,0.540119 -1.346789,0.813686 -0.645339,0.266552 -1.452004,0.266552 -0.736529,0 -1.297688,-0.287596 -0.554147,-0.294611 -0.855776,-0.792642 -0.301619,-0.498032 -0.301619,-1.080238 0,-0.785627 0.498024,-1.339776 0.498034,-0.554148 1.367834,-0.74354 0.182382,-0.04209 0.904878,-0.189393 0.722496,-0.147305 1.234553,-0.266552 0.51908,-0.126261 1.122328,-0.301624 -0.03506,-0.75757 -0.308641,-1.108297 -0.266551,-0.357741 -1.115306,-0.357741 -0.729518,0 -1.101283,0.203422 -0.364753,0.203421 -0.631305,0.610264 -0.259539,0.406843 -0.371775,0.540119 -0.105214,0.126262 -0.462956,0.126262 -0.322675,0 -0.561159,-0.203422 -0.231483,-0.210436 -0.231483,-0.533104 0,-0.505046 0.357742,-0.982035 0.357742,-0.476988 1.115306,-0.785627 0.757574,-0.30864 1.886913,-0.30864 1.26261,0 1.985116,0.301625 0.722496,0.29461 1.017104,0.939947 0.301619,0.645337 0.301619,1.711546 0,0.673396 -0.0073,1.143369 0,0.469974 -0.0073,1.045166 0,0.540119 0.17536,1.129339 0.182382,0.582206 0.182382,0.750555 0,0.29461 -0.280584,0.540119 -0.273563,0.238494 -0.624293,0.238494 -0.294608,0 -0.582204,-0.273567 -0.287596,-0.280581 -0.61027,-0.806671 z m -0.126259,-2.77074 q -0.420866,0.154319 -1.227542,0.329683 -0.799653,0.168348 -1.108294,0.252523 -0.308641,0.07716 -0.589226,0.315654 -0.280574,0.231479 -0.280574,0.652352 0,0.434901 0.329675,0.74354 0.329686,0.301625 0.862789,0.301625 0.56818,0 1.04517,-0.245509 0.484001,-0.252524 0.708462,-0.645337 0.25954,-0.434901 0.25954,-1.430964 z" />
      <path
         inkscape:connector-curvature="0"
         id="path1029-5-2"
         style="font-style:normal;font-variant:normal;font-weight:normal;font-stretch:normal;font-size:13.76854324px;line-height:1.25;font-family:'Arial Rounded MT Bold';-inkscape-font-specification:'Arial Rounded MT Bold, Normal';font-variant-ligatures:normal;font-variant-caps:normal;font-variant-numeric:normal;font-feature-settings:normal;text-align:start;letter-spacing:0px;word-spacing:0px;writing-mode:lr-tb;text-anchor:start;fill:#d6d6d6;fill-opacity:1;stroke:none;stroke-width:0.359144"
         d="m 32.344202,36.023539 0.17536,-0.427887 -2.356881,-5.934294 q -0.21745,-0.512061 -0.21745,-0.74354 0,-0.245509 0.126258,-0.455945 0.12627,-0.210436 0.34372,-0.336697 0.224461,-0.126262 0.462956,-0.126262 0.413855,0 0.624293,0.266552 0.210439,0.259538 0.371776,0.750556 l 1.620352,4.713765 1.536182,-4.384083 q 0.182383,-0.533104 0.329686,-0.834729 0.147304,-0.301625 0.308641,-0.406843 0.168349,-0.105218 0.469968,-0.105218 0.21745,0 0.413855,0.119247 0.203427,0.112232 0.308641,0.308639 0.112236,0.196407 0.112236,0.413858 -0.02807,0.133276 -0.09119,0.378784 -0.06312,0.24551 -0.154316,0.498033 l -2.497173,6.537544 q -0.322674,0.862787 -0.631315,1.353804 -0.308631,0.491017 -0.820699,0.750555 -0.505046,0.266552 -1.367834,0.266552 -0.841743,0 -1.262609,-0.182378 -0.420877,-0.182378 -0.420877,-0.66638 0,-0.329683 0.196405,-0.512061 0.203427,-0.175364 0.596237,-0.175364 0.154325,0 0.301629,0.04209 0.182372,0.04209 0.315653,0.04209 0.329685,0 0.519069,-0.0982 0.189393,-0.0982 0.336707,-0.343712 0.154315,-0.238494 0.350721,-0.708468 z" />
      <path
         inkscape:connector-curvature="0"
         id="path1031-5-1"
         style="font-style:normal;font-variant:normal;font-weight:normal;font-stretch:normal;font-size:13.76854324px;line-height:1.25;font-family:'Arial Rounded MT';-inkscape-font-specification:'Arial Rounded MT, Normal';font-variant-ligatures:normal;font-variant-caps:normal;font-variant-numeric:normal;font-feature-settings:normal;text-align:start;letter-spacing:0px;word-spacing:0px;writing-mode:lr-tb;text-anchor:start;fill:#d6d6d6;fill-opacity:1;stroke:none;stroke-width:0.359144"
         d="m 42.358927,29.852098 1.364746,4.898725 q 0.05749,0.215486 0.114928,0.402241 0.07178,0.186755 0.158019,0.330413 0.100582,0.129292 0.244223,0.215486 0.143663,0.08619 0.35914,0.08619 0.41661,0 0.560272,-0.258583 0.15802,-0.258584 0.316039,-0.732655 l 1.91065,-5.645745 q 0.08618,-0.258582 0.114928,-0.373509 0.02869,-0.114926 0.02869,-0.229852 0,-0.201121 -0.172397,-0.37351 -0.15802,-0.172389 -0.402242,-0.172389 -0.330406,0 -0.459701,0.215486 -0.114928,0.201121 -0.229856,0.574631 l -1.65206,5.358429 -1.450939,-5.200406 q -0.114928,-0.416607 -0.25858,-0.675191 -0.143662,-0.272949 -0.545904,-0.272949 -0.402242,0 -0.545894,0.272949 -0.143663,0.258584 -0.258591,0.675191 l -1.450939,5.200406 -1.65206,-5.358429 q -0.114927,-0.37351 -0.244223,-0.574631 -0.114927,-0.215486 -0.445333,-0.215486 -0.25859,0 -0.41661,0.172389 -0.158019,0.172389 -0.158019,0.37351 0,0.114926 0.02869,0.229852 0.04309,0.114927 0.114928,0.373509 l 1.91065,5.645745 q 0.158019,0.474071 0.301682,0.732655 0.158019,0.258583 0.574628,0.258583 0.215489,0 0.359141,-0.08619 0.143662,-0.08619 0.229855,-0.215486 0.100582,-0.143658 0.15802,-0.330413 0.07178,-0.186755 0.129295,-0.402241 z" />
      <path
         inkscape:connector-curvature="0"
         id="path1033-3-9"
         style="font-style:normal;font-variant:normal;font-weight:normal;font-stretch:normal;font-size:13.76854324px;line-height:1.25;font-family:'Arial Rounded MT';-inkscape-font-specification:'Arial Rounded MT, Normal';font-variant-ligatures:normal;font-variant-caps:normal;font-variant-numeric:normal;font-feature-settings:normal;text-align:start;letter-spacing:0px;word-spacing:0px;writing-mode:lr-tb;text-anchor:start;fill:#d6d6d6;fill-opacity:1;stroke:none;stroke-width:0.359144"
         d="m 52.608048,34.564067 q 0.05749,0.201121 0.114928,0.416607 0.07178,0.215487 0.172386,0.402241 0.100581,0.17239 0.229856,0.287316 0.129295,0.114926 0.316049,0.114926 0.244212,0 0.416609,-0.158024 0.186754,-0.143657 0.186754,-0.330412 0,-0.17239 -0.07178,-0.37351 -0.05749,-0.215486 -0.07178,-0.27295 -0.07178,-0.172388 -0.143652,-0.445337 -0.05749,-0.272951 -0.05749,-0.790118 0,-0.129291 0,-0.445338 0.0144,-0.330413 0.0144,-0.703923 0.0144,-0.37351 0.0144,-0.703922 0.0144,-0.344778 0.0144,-0.488436 0,-0.646459 -0.07178,-1.206725 -0.07178,-0.560264 -0.373508,-0.97687 -0.301681,-0.416608 -0.919401,-0.64646 -0.603364,-0.244218 -1.666438,-0.244218 -1.019962,0 -1.65206,0.258584 -0.61772,0.258583 -0.962504,0.603361 -0.344783,0.330413 -0.459701,0.675191 -0.114927,0.330412 -0.114927,0.488436 0,0.229852 0.158019,0.387876 0.172386,0.143658 0.402242,0.143658 0.287314,0 0.402242,-0.17239 0.114928,-0.186755 0.215488,-0.430972 0.114928,-0.287316 0.330417,-0.488437 0.229845,-0.20112 0.502792,-0.316047 0.287325,-0.129292 0.603363,-0.172388 0.330416,-0.05746 0.660833,-0.05746 0.61772,0 0.948136,0.158024 0.344773,0.158023 0.502802,0.430972 0.15802,0.272949 0.186754,0.617728 0.04309,0.344778 0.05749,0.718287 -0.244212,0.08619 -0.402242,0.129292 -0.143652,0.0431 -0.301671,0.08619 -0.114928,0.02873 -0.41661,0.08619 -0.287314,0.05746 -0.61773,0.114926 -0.330416,0.05746 -0.632098,0.114926 -0.301671,0.05746 -0.430966,0.08619 -0.330416,0.07183 -0.761383,0.186755 -0.416609,0.10056 -0.790117,0.344778 -0.373518,0.229852 -0.632097,0.632093 -0.25858,0.402242 -0.25858,1.034335 0,0.387876 0.143652,0.775751 0.143662,0.37351 0.445344,0.675191 0.301681,0.301681 0.747015,0.488436 0.459701,0.186755 1.077431,0.186755 0.603364,0 1.077432,-0.143658 0.488435,-0.129292 0.847586,-0.316046 0.373507,-0.201122 0.61772,-0.402242 0.25859,-0.215486 0.402242,-0.359144 z m -0.100582,-2.830055 q 0,0.632093 -0.05749,1.134895 -0.04309,0.488437 -0.25859,0.861946 -0.158019,0.287315 -0.416599,0.488436 -0.25859,0.201121 -0.574629,0.330413 -0.301681,0.129291 -0.632097,0.20112 -0.316049,0.05746 -0.617731,0.05746 -0.387875,0 -0.660822,-0.114925 -0.272947,-0.129292 -0.445344,-0.301681 -0.158019,-0.186755 -0.244212,-0.402242 -0.07178,-0.215486 -0.07178,-0.416606 0,-0.100561 0.02869,-0.258584 0.04309,-0.158024 0.143663,-0.316047 0.100581,-0.17239 0.287314,-0.316047 0.186754,-0.143657 0.502803,-0.229852 0.445333,-0.114926 0.97687,-0.20112 0.531538,-0.100561 1.206727,-0.258584 0.287314,-0.07183 0.488435,-0.129292 0.201121,-0.07183 0.344773,-0.129292 z" />
      <path
         inkscape:connector-curvature="0"
         id="path1035-6-1"
         style="font-style:normal;font-variant:normal;font-weight:normal;font-stretch:normal;font-size:13.76854324px;line-height:1.25;font-family:'Arial Rounded MT';-inkscape-font-specification:'Arial Rounded MT, Normal';font-variant-ligatures:normal;font-variant-caps:normal;font-variant-numeric:normal;font-feature-settings:normal;text-align:start;letter-spacing:0px;word-spacing:0px;writing-mode:lr-tb;text-anchor:start;fill:#d6d6d6;fill-opacity:1;stroke:none;stroke-width:0.359144"
         d="m 54.481418,34.765195 q 0,0.330412 0.0144,0.531533 0.02869,0.20112 0.172397,0.316047 0.172386,0.172389 0.445333,0.172389 0.07179,0 0.172387,-0.02874 0.114928,-0.01437 0.201121,-0.10056 0.100581,-0.07183 0.172397,-0.20112 0.07178,-0.143658 0.07178,-0.387876 V 32.36611 q 0,-0.646459 0.05749,-1.22109 0.05749,-0.574631 0.229856,-1.005603 0.172386,-0.430973 0.474068,-0.675192 0.316049,-0.258582 0.818851,-0.258582 0.201122,0 0.344773,0.04309 0.143663,0.02874 0.258591,0.07183 0.114927,0.02873 0.215488,0.07183 0.100581,0.02873 0.215478,0.02873 0.143662,0 0.316049,-0.143658 0.186754,-0.158023 0.186754,-0.430972 0,-0.201121 -0.143652,-0.359145 -0.143663,-0.158023 -0.373508,-0.258583 -0.215488,-0.114926 -0.474078,-0.172389 -0.25858,-0.05746 -0.488436,-0.05746 -0.344773,0 -0.603363,0.114926 -0.25858,0.10056 -0.459701,0.287315 -0.201121,0.17239 -0.387875,0.430973 -0.172386,0.244218 -0.35914,0.531533 v -0.57463 q 0,-0.129292 -0.0144,-0.258584 0,-0.143657 -0.05749,-0.258584 -0.04309,-0.129292 -0.158019,-0.20112 -0.100581,-0.07183 -0.301682,-0.07183 -0.201121,0 -0.316049,0.07183 -0.114927,0.07183 -0.172386,0.20112 -0.04309,0.114927 -0.05749,0.258584 0,0.129292 0,0.258584 z" />
      <path
         inkscape:connector-curvature="0"
         id="path1037-7-9"
         style="font-style:normal;font-variant:normal;font-weight:normal;font-stretch:normal;font-size:13.76854324px;line-height:1.25;font-family:'Arial Rounded MT';-inkscape-font-specification:'Arial Rounded MT, Normal';font-variant-ligatures:normal;font-variant-caps:normal;font-variant-numeric:normal;font-feature-settings:normal;text-align:start;letter-spacing:0px;word-spacing:0px;writing-mode:lr-tb;text-anchor:start;fill:#d6d6d6;fill-opacity:1;stroke:none;stroke-width:0.359144"
         d="m 64.152154,32.136254 q 0.186753,0 0.373507,-0.01437 0.201121,-0.01437 0.35914,-0.08619 0.172387,-0.07183 0.272948,-0.229852 0.100581,-0.17239 0.100581,-0.47407 0,-0.158024 -0.04309,-0.459704 -0.04309,-0.316047 -0.172387,-0.689558 -0.114928,-0.373509 -0.344783,-0.761384 -0.229856,-0.387876 -0.603364,-0.703923 -0.373507,-0.316047 -0.905045,-0.517168 -0.531526,-0.20112 -1.264185,-0.20112 -0.905045,0 -1.565867,0.301681 -0.660821,0.301681 -1.091798,0.833214 -0.430977,0.517167 -0.646455,1.235456 -0.215488,0.703922 -0.215488,1.508405 0,0.818849 0.201121,1.537136 0.215488,0.718288 0.646455,1.249822 0.445344,0.517166 1.106165,0.818848 0.67519,0.301681 1.594602,0.301681 0.689556,0 1.177992,-0.158024 0.502802,-0.158023 0.847575,-0.387875 0.344784,-0.229852 0.545905,-0.488436 0.215488,-0.258584 0.344773,-0.459704 0.08618,-0.143658 0.15803,-0.316047 0.08618,-0.17239 0.08618,-0.344778 0,-0.186755 -0.143663,-0.330413 -0.129284,-0.143657 -0.330406,-0.143657 -0.229855,0 -0.344783,0.143657 -0.114928,0.129292 -0.186754,0.229852 -0.158019,0.244218 -0.344773,0.488436 -0.172397,0.244218 -0.416609,0.430973 -0.229856,0.186755 -0.560272,0.301681 -0.316039,0.114927 -0.77575,0.114927 -0.445333,0 -0.861943,-0.143659 -0.402242,-0.143657 -0.732658,-0.459704 -0.316039,-0.330413 -0.51716,-0.84758 -0.201121,-0.531533 -0.215488,-1.278553 z m -4.453388,-0.861945 q 0.02869,-0.244219 0.08618,-0.574631 0.07178,-0.330412 0.25858,-0.660825 0.100582,-0.186755 0.25859,-0.387876 0.15802,-0.20112 0.387875,-0.359143 0.229846,-0.158024 0.51716,-0.258584 0.301682,-0.114926 0.6752,-0.114926 0.61772,0 1.048696,0.272949 0.430977,0.258584 0.67519,0.67519 0.244223,0.416608 0.287314,0.761386 0.05749,0.330413 0.08618,0.64646 z" />
      <path
         d="m 20.966821,46.220778 q 0,0.06759 -0.0061,0.122895 -0.0061,0.0553 -0.01843,0.09832 -0.01229,0.04301 -0.03687,0.07988 -0.01843,0.03687 -0.07988,0.09832 -0.0553,0.0553 -0.251935,0.190488 -0.196633,0.12904 -0.497727,0.25808 -0.294949,0.12904 -0.682069,0.221212 -0.387121,0.09217 -0.854123,0.09217 -0.749662,0 -1.357995,-0.258081 -0.608332,-0.264225 -1.038466,-0.768096 -0.423989,-0.503871 -0.65749,-1.241244 -0.227357,-0.737372 -0.227357,-1.683667 0,-0.970874 0.245791,-1.73897 0.245791,-0.774241 0.688214,-1.308836 0.448568,-0.54074 1.06919,-0.823399 0.626767,-0.288804 1.382574,-0.288804 0.356396,0 0.688214,0.06759 0.337962,0.06759 0.620622,0.172054 0.282659,0.104461 0.503871,0.239646 0.227356,0.135185 0.307238,0.221211 0.08603,0.07988 0.104461,0.116751 0.02458,0.03687 0.03687,0.08603 0.01229,0.04301 0.01843,0.104461 0.0061,0.0553 0.0061,0.12904 0,0.08603 -0.01229,0.153619 -0.0061,0.06145 -0.03072,0.110606 -0.01844,0.04301 -0.04916,0.06759 -0.03072,0.02458 -0.07374,0.02458 -0.08603,0 -0.24579,-0.122896 -0.15362,-0.12904 -0.4117,-0.282659 -0.251936,-0.153619 -0.620622,-0.276515 -0.368686,-0.12904 -0.878702,-0.12904 -0.559174,0 -1.026177,0.227357 -0.467002,0.221211 -0.804965,0.65749 -0.331817,0.436279 -0.522305,1.075335 -0.184343,0.639056 -0.184343,1.4686 0,0.792675 0.172053,1.407152 0.172054,0.614477 0.497727,1.038467 0.325673,0.417844 0.804965,0.639056 0.479292,0.221211 1.087624,0.221211 0.497726,0 0.866413,-0.122895 0.374831,-0.12904 0.639056,-0.282659 0.264225,-0.15362 0.430134,-0.276515 0.172053,-0.12904 0.264225,-0.12904 0.03687,0 0.06145,0.01843 0.02458,0.01229 0.03687,0.0553 0.01844,0.03687 0.02458,0.104461 0.01229,0.06759 0.01229,0.165909 z"
         style="font-style:normal;font-variant:normal;font-weight:300;font-stretch:normal;font-size:12.58448982px;line-height:4.45904779px;font-family:Calibri;-inkscape-font-specification:'Calibri, Light';font-variant-ligatures:normal;font-variant-caps:normal;font-variant-numeric:normal;font-feature-settings:normal;text-align:start;letter-spacing:0px;word-spacing:0px;writing-mode:lr-tb;text-anchor:start;fill:#d6d6d6;fill-opacity:1;stroke:none;stroke-width:1.17978966"
         id="path1388"
         inkscape:connector-curvature="0" />
      <path
         d="m 26.761339,46.97044 q 0,0.07988 -0.01229,0.14133 -0.01229,0.06145 -0.04301,0.104461 -0.02458,0.04301 -0.06145,0.06759 -0.03687,0.01844 -0.07988,0.01844 h -3.723731 q -0.110606,0 -0.227357,-0.07988 -0.11675,-0.08603 -0.11675,-0.307239 V 39.73805 q 0,-0.221212 0.11675,-0.301094 0.116751,-0.08603 0.227357,-0.08603 h 3.668428 q 0.04301,0 0.07988,0.02458 0.03687,0.01843 0.06145,0.06145 0.02458,0.04301 0.03687,0.110606 0.01229,0.06145 0.01229,0.147475 0,0.07988 -0.01229,0.141329 -0.01229,0.06145 -0.03687,0.104462 -0.02458,0.03687 -0.06145,0.06145 -0.03687,0.01843 -0.07988,0.01843 h -3.262873 v 2.79587 h 2.814304 q 0.04916,0 0.08603,0.02458 0.03687,0.01843 0.06145,0.06145 0.02458,0.03687 0.03687,0.104461 0.01229,0.06145 0.01229,0.147475 0,0.07988 -0.01229,0.141329 -0.01229,0.0553 -0.03687,0.09217 -0.02458,0.03687 -0.06145,0.0553 -0.03687,0.01843 -0.08603,0.01843 h -2.814304 v 3.170702 h 3.318176 q 0.04301,0 0.07988,0.02458 0.03687,0.01843 0.06145,0.06145 0.03072,0.03687 0.04301,0.104461 0.01229,0.06145 0.01229,0.147475 z"
         style="font-style:normal;font-variant:normal;font-weight:300;font-stretch:normal;font-size:12.58448982px;line-height:4.45904779px;font-family:Calibri;-inkscape-font-specification:'Calibri, Light';font-variant-ligatures:normal;font-variant-caps:normal;font-variant-numeric:normal;font-feature-settings:normal;text-align:start;letter-spacing:0px;word-spacing:0px;writing-mode:lr-tb;text-anchor:start;fill:#d6d6d6;fill-opacity:1;stroke:none;stroke-width:1.17978966"
         id="path1390"
         inkscape:connector-curvature="0" />
      <path
         d="m 33.618903,47.167073 q 0,0.04301 -0.01844,0.07374 -0.01229,0.03072 -0.0553,0.0553 -0.04301,0.01843 -0.122895,0.03072 -0.07374,0.01229 -0.190488,0.01229 -0.104461,0 -0.178198,-0.01229 -0.06759,-0.0061 -0.116751,-0.03072 -0.04916,-0.03072 -0.07988,-0.07374 -0.03072,-0.04916 -0.0553,-0.122896 l -0.74352,-1.929455 Q 31.929091,44.844349 31.781616,44.555545 31.634142,44.266741 31.42522,44.057819 31.216297,43.842752 30.921348,43.719856 30.6264,43.596961 30.2147,43.596961 h -0.823399 v 3.582401 q 0,0.03687 -0.01844,0.06759 -0.01843,0.03072 -0.06145,0.04916 -0.04301,0.01843 -0.116751,0.03072 -0.06759,0.01229 -0.178198,0.01229 -0.104461,0 -0.178199,-0.01229 -0.07374,-0.01229 -0.11675,-0.03072 -0.04301,-0.01843 -0.06145,-0.04916 -0.01843,-0.03072 -0.01843,-0.06759 v -7.441317 q 0,-0.221212 0.11675,-0.301094 0.116751,-0.08603 0.227357,-0.08603 h 1.493179 q 0.294949,0 0.485437,0.01843 0.196633,0.01229 0.356397,0.03687 0.454713,0.07988 0.792675,0.25808 0.337962,0.178198 0.559174,0.442423 0.221212,0.258081 0.325673,0.589898 0.110606,0.325673 0.110606,0.706649 0,0.393265 -0.110606,0.706649 -0.110606,0.307238 -0.313383,0.546884 -0.202778,0.233501 -0.485437,0.405555 -0.28266,0.172054 -0.620622,0.288804 0.202777,0.09217 0.362541,0.227357 0.165909,0.135185 0.301094,0.325672 0.14133,0.190488 0.264225,0.442424 0.122896,0.245791 0.245791,0.553029 l 0.743517,1.855721 q 0.07988,0.215067 0.09832,0.294949 0.02458,0.07988 0.02458,0.116751 z M 32.297777,41.48316 q 0,-0.510016 -0.227356,-0.860268 -0.227357,-0.356397 -0.761952,-0.510016 -0.178198,-0.04916 -0.387121,-0.06759 -0.208922,-0.02458 -0.546884,-0.02458 h -0.983163 v 2.918766 h 1.142927 q 0.460858,0 0.792675,-0.110606 0.331818,-0.116751 0.546885,-0.313384 0.221212,-0.196632 0.319528,-0.460857 0.104461,-0.264226 0.104461,-0.571464 z"
         style="font-style:normal;font-variant:normal;font-weight:300;font-stretch:normal;font-size:12.58448982px;line-height:4.45904779px;font-family:Calibri;-inkscape-font-specification:'Calibri, Light';font-variant-ligatures:normal;font-variant-caps:normal;font-variant-numeric:normal;font-feature-settings:normal;text-align:start;letter-spacing:0px;word-spacing:0px;writing-mode:lr-tb;text-anchor:start;fill:#d6d6d6;fill-opacity:1;stroke:none;stroke-width:1.17978966"
         id="path1392"
         inkscape:connector-curvature="0" />
      <path
         d="m 40.046333,39.695032 q 0,0.07988 -0.01229,0.141329 -0.01229,0.06145 -0.03687,0.104462 -0.02458,0.03687 -0.06145,0.06145 -0.03687,0.01843 -0.07988,0.01843 h -2.371881 v 7.158657 q 0,0.03687 -0.01843,0.06759 -0.01844,0.03072 -0.06145,0.04916 -0.04301,0.01843 -0.116751,0.03072 -0.07374,0.01229 -0.178198,0.01229 -0.104461,0 -0.178198,-0.01229 -0.07374,-0.01229 -0.116751,-0.03072 -0.04301,-0.01843 -0.06145,-0.04916 -0.01843,-0.03072 -0.01843,-0.06759 V 40.020705 H 34.36242 q -0.04916,0 -0.08603,-0.01843 -0.03072,-0.02458 -0.0553,-0.06145 -0.02458,-0.04301 -0.03687,-0.104462 -0.01229,-0.06145 -0.01229,-0.141329 0,-0.08603 0.01229,-0.147475 0.01229,-0.06759 0.03687,-0.110606 0.02458,-0.04301 0.0553,-0.06145 0.03687,-0.02458 0.08603,-0.02458 h 5.493425 q 0.04301,0 0.07988,0.02458 0.03687,0.01843 0.06145,0.06145 0.02458,0.04301 0.03687,0.110606 0.01229,0.06145 0.01229,0.147475 z"
         style="font-style:normal;font-variant:normal;font-weight:300;font-stretch:normal;font-size:12.58448982px;line-height:4.45904779px;font-family:Calibri;-inkscape-font-specification:'Calibri, Light';font-variant-ligatures:normal;font-variant-caps:normal;font-variant-numeric:normal;font-feature-settings:normal;text-align:start;letter-spacing:0px;word-spacing:0px;writing-mode:lr-tb;text-anchor:start;fill:#d6d6d6;fill-opacity:1;stroke:none;stroke-width:1.17978966"
         id="path1394"
         inkscape:connector-curvature="0" />
      <path
         d="m 42.074107,47.179362 q 0,0.03687 -0.01843,0.06759 -0.01843,0.03072 -0.06145,0.04916 -0.04301,0.01843 -0.116751,0.03072 -0.06759,0.01229 -0.178198,0.01229 -0.104461,0 -0.178199,-0.01229 -0.07374,-0.01229 -0.11675,-0.03072 -0.04301,-0.01843 -0.06145,-0.04916 -0.01843,-0.03072 -0.01843,-0.06759 V 39.47382 q 0,-0.03687 0.01843,-0.06759 0.02458,-0.03072 0.06759,-0.04916 0.04916,-0.01843 0.116751,-0.03072 0.07374,-0.01229 0.172054,-0.01229 0.110606,0 0.178198,0.01229 0.07374,0.01229 0.116751,0.03072 0.04301,0.01843 0.06145,0.04916 0.01843,0.03072 0.01843,0.06759 z"
         style="font-style:normal;font-variant:normal;font-weight:300;font-stretch:normal;font-size:12.58448982px;line-height:4.45904779px;font-family:Calibri;-inkscape-font-specification:'Calibri, Light';font-variant-ligatures:normal;font-variant-caps:normal;font-variant-numeric:normal;font-feature-settings:normal;text-align:start;letter-spacing:0px;word-spacing:0px;writing-mode:lr-tb;text-anchor:start;fill:#d6d6d6;fill-opacity:1;stroke:none;stroke-width:1.17978966"
         id="path1396"
         inkscape:connector-curvature="0" />
      <path
         d="m 48.421655,39.695032 q 0,0.07988 -0.01229,0.141329 -0.01229,0.06145 -0.04301,0.104462 -0.02458,0.03687 -0.06145,0.06145 -0.03687,0.01843 -0.07988,0.01843 h -3.07853 v 3.010937 h 2.918766 q 0.04301,0 0.07988,0.01843 0.03687,0.01229 0.06145,0.04916 0.03072,0.03687 0.04301,0.09832 0.01229,0.06145 0.01229,0.153619 0,0.07988 -0.01229,0.14133 -0.01229,0.06145 -0.04301,0.104461 -0.02458,0.03687 -0.06145,0.06145 -0.03687,0.01843 -0.07988,0.01843 h -2.918766 v 3.502519 q 0,0.03687 -0.01843,0.06759 -0.01843,0.03072 -0.06145,0.04916 -0.04301,0.01843 -0.11675,0.03072 -0.06759,0.01229 -0.178199,0.01229 -0.104461,0 -0.178198,-0.01229 -0.07374,-0.01229 -0.116751,-0.03072 -0.04301,-0.01843 -0.06145,-0.04916 -0.01843,-0.03072 -0.01843,-0.06759 v -7.441317 q 0,-0.221212 0.116751,-0.301094 0.116751,-0.08603 0.227357,-0.08603 h 3.484084 q 0.04301,0 0.07988,0.02458 0.03687,0.01843 0.06145,0.06145 0.03072,0.04301 0.04301,0.110606 0.01229,0.06145 0.01229,0.147475 z"
         style="font-style:normal;font-variant:normal;font-weight:300;font-stretch:normal;font-size:12.58448982px;line-height:4.45904779px;font-family:Calibri;-inkscape-font-specification:'Calibri, Light';font-variant-ligatures:normal;font-variant-caps:normal;font-variant-numeric:normal;font-feature-settings:normal;text-align:start;letter-spacing:0px;word-spacing:0px;writing-mode:lr-tb;text-anchor:start;fill:#d6d6d6;fill-opacity:1;stroke:none;stroke-width:1.17978966"
         id="path1398"
         inkscape:connector-curvature="0" />
      <path
         d="m 50.947157,47.179362 q 0,0.03687 -0.01843,0.06759 -0.01843,0.03072 -0.06145,0.04916 -0.04301,0.01843 -0.11675,0.03072 -0.06759,0.01229 -0.178199,0.01229 -0.104461,0 -0.178198,-0.01229 -0.07374,-0.01229 -0.116751,-0.03072 -0.04301,-0.01843 -0.06145,-0.04916 -0.01843,-0.03072 -0.01843,-0.06759 V 39.47382 q 0,-0.03687 0.01843,-0.06759 0.02458,-0.03072 0.06759,-0.04916 0.04916,-0.01843 0.116751,-0.03072 0.07374,-0.01229 0.172053,-0.01229 0.110606,0 0.178199,0.01229 0.07374,0.01229 0.11675,0.03072 0.04301,0.01843 0.06145,0.04916 0.01843,0.03072 0.01843,0.06759 z"
         style="font-style:normal;font-variant:normal;font-weight:300;font-stretch:normal;font-size:12.58448982px;line-height:4.45904779px;font-family:Calibri;-inkscape-font-specification:'Calibri, Light';font-variant-ligatures:normal;font-variant-caps:normal;font-variant-numeric:normal;font-feature-settings:normal;text-align:start;letter-spacing:0px;word-spacing:0px;writing-mode:lr-tb;text-anchor:start;fill:#d6d6d6;fill-opacity:1;stroke:none;stroke-width:1.17978966"
         id="path1400"
         inkscape:connector-curvature="0" />
      <path
         d="m 57.53435,46.97044 q 0,0.07988 -0.01229,0.14133 -0.01229,0.06145 -0.04301,0.104461 -0.02458,0.04301 -0.06145,0.06759 -0.03687,0.01844 -0.07988,0.01844 h -3.723731 q -0.110605,0 -0.227356,-0.07988 -0.116751,-0.08603 -0.116751,-0.307239 V 39.73805 q 0,-0.221212 0.116751,-0.301094 0.116751,-0.08603 0.227356,-0.08603 h 3.668428 q 0.04301,0 0.07988,0.02458 0.03687,0.01843 0.06145,0.06145 0.02458,0.04301 0.03687,0.110606 0.01229,0.06145 0.01229,0.147475 0,0.07988 -0.01229,0.141329 -0.01229,0.06145 -0.03687,0.104462 -0.02458,0.03687 -0.06145,0.06145 -0.03687,0.01843 -0.07988,0.01843 h -3.262873 v 2.79587 h 2.814305 q 0.04916,0 0.08603,0.02458 0.03687,0.01843 0.06145,0.06145 0.02458,0.03687 0.03687,0.104461 0.01229,0.06145 0.01229,0.147475 0,0.07988 -0.01229,0.141329 -0.01229,0.0553 -0.03687,0.09217 -0.02458,0.03687 -0.06145,0.0553 -0.03687,0.01843 -0.08603,0.01843 h -2.814305 v 3.170702 h 3.318176 q 0.04301,0 0.07988,0.02458 0.03687,0.01843 0.06145,0.06145 0.03072,0.03687 0.04301,0.104461 0.01229,0.06145 0.01229,0.147475 z"
         style="font-style:normal;font-variant:normal;font-weight:300;font-stretch:normal;font-size:12.58448982px;line-height:4.45904779px;font-family:Calibri;-inkscape-font-specification:'Calibri, Light';font-variant-ligatures:normal;font-variant-caps:normal;font-variant-numeric:normal;font-feature-settings:normal;text-align:start;letter-spacing:0px;word-spacing:0px;writing-mode:lr-tb;text-anchor:start;fill:#d6d6d6;fill-opacity:1;stroke:none;stroke-width:1.17978966"
         id="path1402"
         inkscape:connector-curvature="0" />
      <path
         d="m 65.258328,43.20984 q 0,1.001598 -0.251936,1.769694 -0.251936,0.761952 -0.743517,1.278113 -0.491582,0.51616 -1.216665,0.780385 -0.718938,0.264226 -1.720536,0.264226 h -1.566916 q -0.110606,0 -0.227357,-0.07988 -0.11675,-0.08603 -0.11675,-0.307239 v -7.177092 q 0,-0.221212 0.11675,-0.301094 0.116751,-0.08603 0.227357,-0.08603 h 1.671378 q 1.013887,0 1.708246,0.276514 0.700504,0.276515 1.167506,0.786531 0.473147,0.503871 0.712793,1.216664 0.239647,0.706649 0.239647,1.579206 z m -0.804965,0.03687 q 0,-0.694359 -0.178199,-1.284257 -0.172053,-0.596043 -0.54074,-1.026177 -0.362541,-0.430134 -0.921715,-0.66978 -0.559174,-0.24579 -1.425587,-0.24579 h -1.222809 v 6.611773 h 1.228954 q 0.81111,0 1.370284,-0.196633 0.565319,-0.202778 0.94015,-0.620622 0.374831,-0.417844 0.559174,-1.050756 0.190488,-0.639056 0.190488,-1.517758 z"
         style="font-style:normal;font-variant:normal;font-weight:300;font-stretch:normal;font-size:12.58448982px;line-height:4.45904779px;font-family:Calibri;-inkscape-font-specification:'Calibri, Light';font-variant-ligatures:normal;font-variant-caps:normal;font-variant-numeric:normal;font-feature-settings:normal;text-align:start;letter-spacing:0px;word-spacing:0px;writing-mode:lr-tb;text-anchor:start;fill:#d6d6d6;fill-opacity:1;stroke:none;stroke-width:1.17978966"
         id="path1404"
         inkscape:connector-curvature="0" />
      <g
         transform="translate(3.0574499,0.85044643)"
         id="g2326">
        <g
           id="g2076"
           transform="matrix(1.0251604,0,0,1.0251604,-4.3918218,-9.5285599)" />
      </g>
    </g>
  </g>
</svg>
